<svg width="795" height="500" viewBox="0 0 795 500" fill="none" xmlns="http://www.w3.org/2000/svg">
<g clip-path="url(#clip0_603_2)">
<path d="M313.553 399.052H3.19589C2.34858 399.051 1.53623 398.714 0.937088 398.115C0.337946 397.516 0.000939629 396.703 0 395.856V93.3111C0.000939629 92.4638 0.337946 91.6515 0.937088 91.0523C1.53623 90.4532 2.34858 90.1162 3.19589 90.1152H313.553C314.4 90.1162 315.213 90.4532 315.812 91.0523C316.411 91.6515 316.748 92.4638 316.749 93.3111V395.856C316.748 396.703 316.411 397.516 315.812 398.115C315.213 398.714 314.4 399.051 313.553 399.052V399.052Z" fill="#F0F0F0"/>
<path d="M279.818 117.813H36.9303C36.0831 117.814 35.2709 118.151 34.6718 118.75C34.0728 119.35 33.7356 120.162 33.7344 121.009V309.212C33.7357 310.059 34.0728 310.871 34.6719 311.47C35.2709 312.069 36.0831 312.406 36.9303 312.408H279.818C280.666 312.406 281.478 312.069 282.077 311.47C282.676 310.871 283.013 310.059 283.014 309.212V121.009C283.013 120.162 282.676 119.35 282.077 118.75C281.478 118.151 280.666 117.814 279.818 117.813V117.813Z" fill="white"/>
<path d="M265.97 349.338H50.7794C50.3087 349.337 49.8574 349.15 49.5246 348.817C49.1917 348.484 49.0045 348.033 49.0039 347.562V337.619C49.0045 337.148 49.1917 336.697 49.5246 336.364C49.8574 336.032 50.3087 335.844 50.7794 335.844H265.97C266.44 335.844 266.892 336.032 267.225 336.364C267.557 336.697 267.745 337.148 267.745 337.619V347.562C267.745 348.033 267.557 348.484 267.225 348.817C266.892 349.15 266.44 349.337 265.97 349.338V349.338Z" fill="white"/>
<path d="M191.399 373.484H50.7794C50.3087 373.484 49.8574 373.297 49.5246 372.964C49.1917 372.631 49.0045 372.18 49.0039 371.709V361.766C49.0045 361.296 49.1917 360.844 49.5246 360.511C49.8574 360.179 50.3087 359.991 50.7794 359.991H191.399C191.87 359.991 192.321 360.179 192.654 360.511C192.987 360.844 193.174 361.296 193.174 361.766V371.709C193.174 372.18 192.987 372.631 192.654 372.964C192.321 373.297 191.87 373.484 191.399 373.484Z" fill="white"/>
<path d="M152.374 245.342C169.43 245.342 183.256 231.516 183.256 214.46C183.256 197.405 169.43 183.578 152.374 183.578C135.319 183.578 121.492 197.405 121.492 214.46C121.492 231.516 135.319 245.342 152.374 245.342Z" fill="#FFB8B8"/>
<path d="M197.556 312.407H129.086L131.323 262.068L131.856 261.507L139.54 253.39H163.992L173.054 262.168L173.786 262.878L193.082 281.372L197.556 312.407Z" fill="#B3B300"/>
<path d="M140.86 312.407H89.0581C88.9305 301.044 88.8594 294.24 88.8594 294.24L91.8562 292.415C91.8599 292.411 91.865 292.408 91.8705 292.408H91.8777L124.888 272.366L131.819 261.109L131.855 261.507L133.893 285.235C133.893 285.235 137.259 296.115 140.86 312.407Z" fill="#2F2E41"/>
<path d="M227.924 312.407H173.054C173.885 279.269 169.411 261.109 171.712 261.109L173.054 262.168L189.225 274.937L210.539 282.756H210.553L225.247 288.147L227.825 289.091V290.306C227.832 293.217 227.846 301.179 227.924 312.407Z" fill="#2F2E41"/>
<path d="M123.157 224.122C123.157 224.122 125.781 219.514 125.171 204.121C124.561 188.727 148.002 197.434 167.589 195.965C187.176 194.497 183.029 221.665 183.029 221.665C183.029 221.665 184.442 220.05 187.468 206.938C190.493 193.826 183.624 180.759 183.624 180.759C181.601 166.98 170.698 171.396 170.698 171.396C175.949 173.441 174.94 177.811 174.94 177.811C170.495 170.019 159.592 174.435 159.592 174.435C145.051 165.309 130.313 177.326 130.313 177.326C112.746 181.313 123.048 195.283 123.048 195.283C105.382 204.211 123.157 224.122 123.157 224.122Z" fill="#2F2E41"/>
<path d="M95.9759 312.407H74.6911C74.8571 309.785 74.8618 307.155 74.7053 304.531C73.434 299.468 91.317 292.621 91.8566 292.415C91.8603 292.411 91.8653 292.409 91.8708 292.408H91.878L95.2869 294.241L95.9759 312.407Z" fill="#2F2E41"/>
<path d="M231.767 312.407H209.41L206.619 284.851L209.751 282.564C209.751 282.564 210.035 282.628 210.539 282.756H210.554C213.061 283.374 220.816 285.419 225.248 288.147C226.234 288.7 227.108 289.432 227.826 290.306C228.265 290.833 228.484 291.51 228.436 292.195C228.323 293.225 229.63 300.81 231.767 312.407Z" fill="#2F2E41"/>
<path d="M791.393 308.937H481.036C480.188 308.936 479.376 308.599 478.777 307.999C478.178 307.4 477.841 306.588 477.84 305.741V3.19589C477.841 2.34858 478.178 1.53625 478.777 0.937103C479.376 0.33796 480.188 0.00094228 481.036 0H791.393C792.24 0.00092643 793.052 0.337926 793.652 0.937073C794.251 1.53622 794.588 2.34857 794.589 3.19589V305.741C794.588 306.588 794.251 307.4 793.652 307.999C793.052 308.599 792.24 308.936 791.393 308.937V308.937Z" fill="#F0F0F0"/>
<path d="M757.658 27.6982H514.77C513.923 27.6995 513.111 28.0366 512.512 28.6357C511.913 29.2348 511.575 30.0469 511.574 30.8941V219.097C511.575 219.944 511.913 220.756 512.512 221.355C513.111 221.954 513.923 222.291 514.77 222.293H757.658C758.505 222.291 759.318 221.954 759.917 221.355C760.516 220.756 760.853 219.944 760.854 219.097V30.8941C760.853 30.0469 760.516 29.2348 759.917 28.6357C759.318 28.0366 758.505 27.6995 757.658 27.6982V27.6982Z" fill="white"/>
<path d="M743.81 259.223H528.619C528.149 259.222 527.697 259.035 527.364 258.702C527.032 258.369 526.844 257.918 526.844 257.447V247.504C526.844 247.034 527.032 246.582 527.364 246.25C527.697 245.917 528.149 245.73 528.619 245.729H743.81C744.28 245.73 744.732 245.917 745.064 246.25C745.397 246.582 745.585 247.034 745.585 247.504V257.447C745.585 257.918 745.397 258.369 745.064 258.702C744.732 259.035 744.28 259.222 743.81 259.223Z" fill="white"/>
<path d="M669.239 283.369H528.619C528.149 283.369 527.697 283.181 527.364 282.849C527.032 282.516 526.844 282.065 526.844 281.594V271.651C526.844 271.18 527.032 270.729 527.364 270.396C527.697 270.063 528.149 269.876 528.619 269.875H669.239C669.709 269.876 670.161 270.063 670.494 270.396C670.826 270.729 671.014 271.18 671.014 271.651V281.594C671.014 282.065 670.826 282.516 670.494 282.849C670.161 283.181 669.709 283.369 669.239 283.369V283.369Z" fill="white"/>
<path d="M696 222.293C697.371 217.357 698.436 213.103 698.983 210.092C699.152 209.163 699.169 208.213 699.033 207.279C696.987 192.727 660.043 180.427 655.306 178.907L654.162 166.237L607.658 161.23L601.771 177.437L585.081 183.694C584.477 183.917 583.902 184.212 583.37 184.574C581.97 185.519 580.893 186.871 580.285 188.447C579.676 190.023 579.566 191.747 579.968 193.388L587.077 222.293H696V222.293Z" fill="#8B8B00"/>
<path d="M599.597 222.293H563.512C564.804 214.239 565.962 207.116 566.715 202.585C569.47 186.094 581.487 184.688 583.369 184.574C583.518 184.56 583.61 184.56 583.618 184.56H591.21L599.597 222.293Z" fill="#8B8B00"/>
<path d="M695.998 222.293H704.748C703.974 215.184 701.516 210.397 699.031 207.279C697.372 205.088 695.231 203.306 692.774 202.074L692.113 201.79L684.422 222.293H695.998Z" fill="#8B8B00"/>
<path d="M629.093 153.211C647.585 153.211 662.576 138.22 662.576 119.727C662.576 101.235 647.585 86.2437 629.093 86.2437C610.6 86.2437 595.609 101.235 595.609 119.727C595.609 138.22 610.6 153.211 629.093 153.211Z" fill="#A0616A"/>
<path d="M606.618 103.414C610.084 107.516 615.949 108.673 621.36 109.144C632.35 110.108 648.328 108.544 659.068 106.065C659.839 113.494 657.746 121.504 662.12 127.616C664.171 120.217 665.364 112.607 665.675 104.936C665.807 101.646 665.755 98.2423 664.418 95.2222C663.082 92.2021 660.165 89.6381 656.808 89.6117C659.303 87.7197 662.225 86.471 665.316 85.9757L654.685 80.6329L657.415 77.8298L638.167 76.652L643.743 73.1107C635.349 71.9581 626.857 71.6911 618.407 72.3141C614.485 72.6028 610.384 73.1548 607.206 75.4279C604.028 77.7009 602.191 82.2173 604.165 85.5537C601.695 85.9593 599.369 86.9889 597.409 88.5447C595.448 90.1006 593.917 92.1312 592.96 94.4444C591.543 98.0364 591.673 102.026 592.11 105.854C592.835 111.976 594.257 117.994 596.35 123.793" fill="#2F2E41"/>
<path d="M558.377 499.429H248.02C247.173 499.428 246.36 499.091 245.761 498.492C245.162 497.893 244.825 497.081 244.824 496.233V193.689C244.825 192.841 245.162 192.029 245.761 191.43C246.36 190.831 247.173 190.494 248.02 190.493H558.377C559.224 190.494 560.037 190.831 560.636 191.43C561.235 192.029 561.572 192.841 561.573 193.689V496.233C561.572 497.081 561.235 497.893 560.636 498.492C560.037 499.091 559.224 499.428 558.377 499.429V499.429Z" fill="#E4E4E4"/>
<path d="M524.645 218.191H281.756C280.909 218.192 280.097 218.529 279.498 219.128C278.899 219.727 278.562 220.54 278.561 221.387V409.59C278.562 410.437 278.899 411.249 279.498 411.848C280.097 412.447 280.909 412.784 281.756 412.785H524.645C525.492 412.784 526.304 412.447 526.903 411.848C527.502 411.249 527.839 410.437 527.84 409.59V221.387C527.839 220.54 527.502 219.727 526.903 219.128C526.304 218.529 525.492 218.192 524.645 218.191Z" fill="white"/>
<path d="M510.794 449.715H295.604C295.133 449.714 294.682 449.527 294.349 449.194C294.016 448.861 293.829 448.41 293.828 447.94V437.997C293.829 437.526 294.016 437.075 294.349 436.742C294.682 436.409 295.133 436.222 295.604 436.221H510.794C511.265 436.222 511.716 436.409 512.049 436.742C512.382 437.075 512.569 437.526 512.569 437.997V447.94C512.569 448.41 512.382 448.861 512.049 449.194C511.716 449.527 511.265 449.714 510.794 449.715V449.715Z" fill="white"/>
<path d="M436.223 473.862H295.604C295.133 473.861 294.682 473.674 294.349 473.341C294.016 473.008 293.829 472.557 293.828 472.086V462.144C293.829 461.673 294.016 461.222 294.349 460.889C294.682 460.556 295.133 460.369 295.604 460.368H436.223C436.694 460.369 437.145 460.556 437.478 460.889C437.811 461.222 437.998 461.673 437.999 462.144V472.086C437.998 472.557 437.811 473.008 437.478 473.341C437.145 473.674 436.694 473.861 436.223 473.862V473.862Z" fill="white"/>
<path d="M427.098 412.786H378.215L381.261 367.063L398.896 371.133L416.047 364.535L416.502 364.364L416.53 364.35C416.536 364.364 416.541 364.378 416.544 364.393C416.814 365.479 422.197 387.034 427.098 412.786Z" fill="#E6E6E6"/>
<path d="M474.318 412.785H443.744L445.704 385.379L456.556 374.527C456.556 374.527 465.143 392.537 474.318 412.785Z" fill="#CECE02"/>
<path d="M357.25 412.786H341.121C341.192 404.007 341.235 397.942 341.235 396.231C341.154 393.585 341.731 390.961 342.915 388.593C344.099 386.225 345.852 384.189 348.017 382.666L356.163 385.379L357.25 412.786Z" fill="#CECE02"/>
<path d="M355 332.54C355.025 322.876 356.969 313.386 360.643 304.998C364.317 296.611 369.594 289.613 375.959 284.689C389.481 274.26 405.795 274.449 420.718 285.205C431.35 292.869 440 312.155 440 328.195V375H355V332.54Z" fill="#4B3621"/>
<path d="M410.58 348.005C425.539 339.827 431.037 321.071 422.859 306.112C414.682 291.153 395.926 285.655 380.967 293.833C366.008 302.01 360.51 320.766 368.687 335.725C376.865 350.684 395.621 356.182 410.58 348.005Z" fill="#CFA27D"/>
<path d="M365.16 316.973C364.939 316.76 364.422 316.261 368.014 293.142L368.128 292.764H368.453C386.658 285.271 405.129 285.083 423.356 292.201C423.918 292.424 424.4 292.765 424.756 293.19C425.113 293.616 425.331 294.112 425.389 294.629C427.517 316.35 427.002 316.824 426.783 317.026C426.449 317.333 426.043 317.577 425.589 317.745C425.136 317.913 424.646 318 424.151 318H416.075L415.905 317.745C414.519 315.589 412.998 313.496 411.348 311.475C410.589 313.487 409.968 315.534 409.487 317.605L409.389 318H367.848C367.338 318 366.834 317.908 366.37 317.731C365.906 317.554 365.493 317.296 365.16 316.973V316.973Z" fill="#4B3621"/>
<path d="M456.558 374.527L451.991 412.785H410.793L416.048 364.535L416.098 364.066L416.503 364.364L416.545 364.392L426.708 371.807L456.558 374.527Z" fill="#CECE02"/>
<path d="M385.445 412.786H348.55L348.018 382.666L375.168 373.661L381.262 367.063C381.262 367.063 383.187 386.913 385.445 412.786Z" fill="#CECE02"/>
</g>
<defs>
<clipPath id="clip0_603_2">
<rect width="794.589" height="499.429" fill="white"/>
</clipPath>
</defs>
</svg>
